<?xml version="1.0" encoding="utf-8"?>
<!-- Generator: Adobe Illustrator 24.3.0, SVG Export Plug-In . SVG Version: 6.00 Build 0)  -->
<svg version="1.1" id="Layer_1" xmlns="http://www.w3.org/2000/svg" xmlns:xlink="http://www.w3.org/1999/xlink" x="0px" y="0px"
	 viewBox="0 0 506 506" style="enable-background:new 0 0 506 506;" xml:space="preserve">
<style type="text/css">
	.st0{fill:#FFFFFF;}
</style>
<g>
	<path class="st0" d="M203.3,65c-0.8,1.8-3,3.5-1.5,6.1c9,1.3,8.3-17.3,5.6-26.4c-0.8-2.6-4.3-9.6-6.6-9.2c-5.2,1,0.7,7.9,1.5,10.7
		C204.3,53,203.2,59.9,203.3,65L203.3,65z"/>
	<path class="st0" d="M222.1,62.2c0.1-0.4,0.4-2.7,1-2.6c0.8-6.1-0.9-15.6-2.5-21.5H218C216,44,216.3,60.1,222.1,62.2L222.1,62.2z"
		/>
	<path class="st0" d="M238.3,52.3c-5.5-2.1-6.5,9.5-5.1,12.7C239.1,65.2,239.2,57.1,238.3,52.3z"/>
	<path class="st0" d="M178.3,62.5c-5.5-2.6-5.8,8.8-4.1,11.7C180,74.2,179.3,66.3,178.3,62.5z"/>
	<path class="st0" d="M267.8,90.4c4.8,1.3,14-3.1,15.8-7.6c-5.2-3.3-13.7,2.3-16.3,6.6C267.7,89.5,267.9,89.8,267.8,90.4L267.8,90.4
		z"/>
	<path class="st0" d="M272.9,101.6c7-3.7,13.5-7.2,20.3-10.7c3.2-1.7,8.2-3,8.6-7.1c-0.6-2-3.5-1.8-4.1-1.5
		c-7.6,4.4-19.3,10.1-28,14.7c-3.2,1.7-7.8,3.7-7.1,7.6C266.2,106.6,269.9,103.2,272.9,101.6L272.9,101.6z"/>
	<path class="st0" d="M269.9,151.4c9.1-4.7,17.4-8.2,25.9-12.7c3.9-2.1,10.6-4.3,10.2-9.7c-0.9-0.5-1.3-1.4-3-1
		c-6.9,4.5-15.7,9.5-23.9,13.7c-3.8,1.9-7.9,3.7-11.7,5.6c-3.7,1.8-9.1,2.8-10.7,7.1C260.9,158.6,265.9,153.5,269.9,151.4
		L269.9,151.4z"/>
	<path class="st0" d="M269.4,225.6c6.7-1.2,14-2.7,19.8-1.5c2.5,0.5,6.8,4.8,10.7,3.6c2.1-0.7,3.6-3.4,3.6-5.6
		c-0.1-3.8-7.5-7.9-11.2-8.7c-5.4-1-11.2,0-15.8,0.5c-4.8,0.5-9.3,1.7-14.2,2.5c-5.1,0.9-10.9,0-10.7,6.1
		C251.9,230.4,263,226.8,269.4,225.6L269.4,225.6z"/>
	<path class="st0" d="M191,232.8c-6.8,2.2-4,11.8,2,12.2C202.2,245.6,203.5,228.7,191,232.8z"/>
	<path class="st0" d="M268.8,233.8c-9.9,1.4-6.7,12.7,0,12.7C276,246.5,280.4,232.1,268.8,233.8z"/>
	<path class="st0" d="M264.3,335.5c-0.8-0.7-1.7-1.3-3.5-1c-2.9,5.3-9.5,6.8-10.7,13.7C256.7,349.6,262.4,342.1,264.3,335.5
		L264.3,335.5z"/>
	<path class="st0" d="M308,392.4c2.3-2.1,6.3-4.3,6.1-8.1c-0.9-0.7-1.7-1.3-3.6-1c-3.3,4.4-12.9,7.2-10.7,13.7
		C303.2,398.1,305.9,394.4,308,392.4L308,392.4z"/>
	<path class="st0" d="M290.2,422.9c9.5-6,18.4-12.4,27.4-18.3c4.6-3,10.8-5.2,12.7-10.7c-0.3-1.5-2-1.7-4.1-1.5
		c-12.6,9-27.2,19-40.7,26.9c-4,2.3-11.4,4.6-10.2,10.7C280.7,429.4,285.8,425.7,290.2,422.9L290.2,422.9z"/>
	<path class="st0" d="M284.6,437.2c11.6-7.5,24.4-14.7,35.6-21.3c2.2-1.3,6.3-2.3,6.1-5.6c-1.2-2.4-4.2-1.6-5.6-1
		c-8.1,3.6-17.2,11.3-26.9,16.8c-4.4,2.5-9.4,5.3-13.7,8.1c-4.2,2.7-11.2,5.9-9.2,11.2C276.4,444.9,280.1,440.1,284.6,437.2
		L284.6,437.2z"/>
	<path class="st0" d="M171.2,444.9c-0.1,0-0.8,5.1-1,5.8c-1.2,6.3-2,13.5-4.1,20.4c-0.7,2.3-7.1,17-2,17.8c2.5,0.4,3.7-8.2,4.6-10.8
		c3-9.4,6.9-15.5,5.1-33.2C172.9,444.9,172.1,444.9,171.2,444.9L171.2,444.9z"/>
	<path class="st0" d="M339,456.5c-2.3,4-3.5,10.7-5.1,16.8c-1.4,5.3-3.2,11-2,14.7c6.5-0.1,5.8-8.8,7.1-13.7c1.5-5.7,4-12.1,3-17.3
		C341.5,456.4,340.3,456.4,339,456.5L339,456.5z"/>
	<path class="st0" d="M271.4,457.5c-3.5,2.8-7.2,6.2-10.7,9.7c-3.1,3.1-8.4,6.5-7.6,11.7c4.1,1.3,6.8-3.2,9.2-5.6
		c2.6-2.6,5-5.9,7.6-8.1c2.2-2,5.7-2.5,5.6-6.1C275.1,457.5,273.4,457.3,271.4,457.5L271.4,457.5z"/>
	<path class="st0" d="M381.7,484.9c1.1,1.8,4.4,3.7,6.6,1.5c0.7-3.2-2-3.1-2-5.6c0.2-4.5,2.7-10.4,0-13.2
		C380.5,466.5,380.9,483.6,381.7,484.9L381.7,484.9z"/>
	<path class="st0" d="M302.6,433.1c1.4-1.2,2.9-2.4,4.4-3.5c-1.6,1-3.2,2.1-4.6,3.5H302.6z"/>
	<path class="st0" d="M434.6,493.6c-5.4-16.2-11.4-33.1-17.8-52.4c-2.6-7.9-5.7-16.5-9.7-25.4c-2.5-5.6-7.4-20-11.7-23.4
		c-4.1-3.2-11.1-5.3-16.3-7.1c-6-2.1-12.7-2.7-19.8-4.1c-2.1-7.8-10.5-10.7-18.8-13.7c-12.2-4.5-22.8-7.3-34.6-12.2
		c-7.8-3.3-15.6-7.7-25.4-7.6c-1.1-6.6-2.3-12.6-2-19.3c8-3,17.2-4.9,20.8-12.2c15.2,2.4,29.6,0.7,34.6-8.6
		c1.5-2.7,3.2-9.1,2.5-13.2c-0.8-4.9-10.3-13.1-16.3-10.2c-1.8,0.9-3,4.4-2.5,6.6c0.7,3.7,6.9,3,7.6,7.1c1.4,8-15.4,10-22.4,7.1
		c5.2-12.5,11.2-24.1,14.7-38.1c4.9-1.8,10-1.9,12.7-6.1c6.1-9.4-1-25.9-10.7-26.4c1.7-14.2-3.7-24.5-4.1-36.6
		c-0.3-12,4.7-23.6,5.6-36.1c2-27.3-1.8-55.4-1-84.9c16.5-3.3,31.6-19.5,28-40.2c-1.3-7.6-9.4-16.8-16.8-18.3
		c-11.3-2.3-19.5,3.2-26.4,6.6C297.2,8.6,269.3,4,251.9,14.7c-4.8,2.9-7.3,7.7-11.7,9.2c-5.3-10.5-13.8-20.5-26.4-22.4
		c-23-3.5-34.5,15-45.8,24.9c-9.9-7.6-16.6-22.2-34.6-17.8c-10.6,2.6-19.5,14.1-21.3,22.4c-4.7,21.1,5.5,44.7,15.8,53.9
		c2.3,2,7.9,3.6,9.7,6.6c2,3.5,1.6,12.9,2,19.3c0.5,7.2,0.1,14.8,0.5,20.8c1.5,20.2,7.2,44.4,6.6,64.1c7.4,5.6,3.7,22.4,4.6,34.6
		c-8.3,1.6-11.7,11.3-10.2,20.3c0.9,5.4,8,16.5,13.7,19.3c2.5,1.2,5.2,1.6,7.6,1.5c3.7,9.1,8,17.7,11.2,27.4
		c-8.2,1.6-20.4,3.3-22.4-5.1c4.1,0.4,10.8,2.4,11.7-3.1c0.8-4.6-4.4-9.2-9.7-9.2c-5.2,0-12.3,5-13.2,9.2
		c-4.4,19.5,23.6,24.7,41.1,18.3c6.4,7.2,11.8,15.6,17.7,22.4v9.7c-11.8,3.1-24.3,8.8-35.5,15.8c-10.1,6.3-19.3,11.8-22.6,22.4
		c-17.4,3.3-31.7,9.5-51.2,10.7c-1.5,1.9-4,2.8-5.5,4.6c-0.3,32.7-3,63.1-3.5,95.6c-3.9,1.7-26-5.6-23.9,5.6c0.9,4.8,6,3,12.7,3.6
		c18.8,1.6,41.3,0.4,64.6,2c11,0.8,22.1,1.3,33,2.1c18.4,1.3,37.6,2.2,54.9,1.5c5.6-0.2,11.3-1.7,17.3-2c20.8-1.4,38.6-1.5,60-1.5
		c11,0,22.3-0.8,32.5,0c13,1.1,29.9-0.2,44.2,1c19.2,1.6,38.1,1.4,54.4,1.5c6.4,0,16.7-0.2,17.8-2
		C452.6,494.3,442.1,492.1,434.6,493.6L434.6,493.6z M317,246.5c5.9,0.3,5.9,8.7,0,8.6V246.5z M146.8,82.3c-5.7-2.8-5.9-13-5.6-19.8
		c0.2-5.9,3.2-12.7,0.5-16.8c-4.9,0.2-4.8,6.6-5.1,9.7c-0.8,8.4-0.2,14.7,0.5,21.9c-16.1-8.6-25-58.8,5.6-58
		c6.9,4.2,14.7,10.6,19.8,18.3c1.7,2.5,3,6.9,4.6,8.1c5.7,4.6,11.9-1.5,9.7-11.7c6.2-7.1,14.9-17.4,23.9-20.8
		c12.9-4.9,27.9,6.3,30.5,16.3c1.4,5.2-0.4,15.4,8.6,13.2c2.1-0.5,4.7-4.7,6.6-7.1c6.6-8.4,16-18.3,33.6-15.7
		c4.3,0.6,14.2,5.3,15.8,12.7c0.9,4.5-1.3,11,4.6,11.7c5,0.6,6-4.4,8.1-7.1c3.1-4,10.9-9.7,20.3-7.6c16.2,3.6,6.4,33.9-6.1,35.1
		c-1.6-3.1,5.6-7.7,1-10.7c-6.8,2-6.2,11.4-10.2,16.3c-5-6.3,6.8-16.3,2-22.4c-7,3-6.2,13.7-9.2,20.8c-5-4.3-0.1-11.3,1.5-16.3
		c-0.2-0.7-0.9-0.8-1-1.5c-8.1,0.4-6.8,10.2-8.7,16.8c-8.1-0.7-15.5-2.1-23.9-2.5c0.8-2.4,2.4-6,3.7-9.7c-0.1,1-0.2,1.9-0.1,2.8
		c0.6,0.6,1.8,2.2,3,2.1c2.8-4.4,7.6-16.2,4.6-22.1h-2.5c-0.6,3.2-2.1,7-3.4,10.8c0.4-3.3,0-6.3-2.2-8.3c-4,1-2.8,6.7-3.6,10.2
		c-0.9,4.1-2.2,7.8-4.1,10.7c0.3,0.9-0.6,3,0.5,3c-0.5,1.1-3.2,0.2-4.6,0.5c1.7-6.3,8.3-19.9,2.5-25.4c-4.8,2.4-2.8,9.7-4.1,14.7
		c-1,4.2-3.8,7.3-3.5,11.2c-1.2,0.3-3.7-0.6-4.1,0.5c1.1-4.6,7-18.6,1.5-23.4c-3.9,0.2-2.7,5.2-3.1,8.1c-0.6,4.3-1.8,9-2.5,12.2
		c-0.7,2.2,1.7,1.3,1.5,3.1c-15.6-0.7-27.4,2.4-40.7,4.1c1.1-5.9,3.4-14.4,2.5-19.8c-0.3-1.6-0.2-4.4-2.5-4.6
		c-5.6,3.2-1.5,13.5-4.1,21.4c-0.9,2.6,2.4,2.6,1,4.1c-5.7,0.7-10.8,2-16.3,3.1c-1.1-4.4,2.8-12.5-0.5-17.3
		c-6.8,0.1-3.4,14.2-3.6,17.8c-7.1,0.5-13.7,1.5-19.8,3c-1.7-3.4,4.1-15-1.5-15.8c-4-0.6-4,11.4-2.5,16.3c-2-0.3-2.5,0.9-4.6,0.5
		c-2.9-5.9,2.8-15-2-18.8c-6.3,3.7-2.6,14.1-3.6,20.3c-1.6-0.4-1.8,0.5-3,0.5c0.1-5.4-0.9-9-0.5-14.7c0.3-4.1,3.5-10.1-1-13.2
		c-3.7,1.8-4,10.4-4.1,15.3C147.2,73.5,148.8,77.9,146.8,82.3L146.8,82.3z M152.9,243.4c2,2.9,1.9,8,3.6,11.2
		C154.6,253.3,150.6,247.8,152.9,243.4z M149.4,92.9c15.2-4.1,31.4-6.1,48.3-8.6c25.1-3.8,47.2-10.1,78.2-8.1
		c10.7,0.7,17.6,2.6,29.4,4.6v9.1c-1-0.8-2.8-0.7-3.3-0.5c-6.7,2.9-14,9.3-21.9,14.2c-3.6,2.3-7.6,4.3-11.2,6.6s-8.6,5.1-9.2,9.2
		c4.6,2.6,8.8-2.4,12.2-4.6c8.2-5.2,15.7-10.2,23.4-15.3c3.3-2.2,7.8-3.8,9.9-7.2v8.1c-0.3,0-0.5,0-0.8,0.1
		c-10.8,8.8-28.3,15.2-41.2,21.9c-4,2.1-10.6,3.9-11.2,9.2c5.2,1.9,10.2-2.7,14.7-5.1c9.9-5.2,19.9-9,29.5-14.2
		c2.8-1.5,6.4-3.1,8.9-5.5v4.4c0,0.2,0,0.3,0,0.4c-0.1,0-0.2,0.1-0.4,0.1c-12.3,10.3-27.6,18.6-43.2,25.4c-3.1,1.3-6.6,2.1-8.6,5.1
		c2.9,6,11.8-0.4,15-2c13.6-7,30.6-14.8,41.3-22.9c1.1,6.2,0.3,14.3,0.6,21.4c-5.7,4.4-12.5,7.2-19.3,10.7
		c-6.5,3.2-12.8,7.9-19.3,10.7c-2.4,1-6,0.2-7.1,3.6c2.7,5.2,8.7,1.1,11.7-0.5c10.7-5.6,23.3-11.9,33.6-17.8
		c1.2,1.5,0.2,5.3,0.5,7.6c-1.2-0.3-3.1-1-4.1,0c-8.6,4.8-19.1,10.2-29.5,14.7c-2.2,1-9.2,2.4-8.6,5.6c1,5.5,18.7-4.8,21.4-6.1
		c8.3-4,14.4-6.4,20.8-10.7c0,3.2,0.2,6.6-0.5,9.2c-1.6,0.1-1.5-1.6-3.6-1c-7.2,3.2-15.5,9.5-23.9,11.7c-1.2,0.3-9.9-0.1-9.2,4.1
		c0.9,5.2,16.4-1.5,18.8-2.5c7-3.1,10.9-6.1,16.8-8.6c-3.4,6.3-0.2,20.6-7.1,22.9c-2.2-0.8,4.2-4.6,0.5-7.1
		c-4.8-0.2-4.9,4.3-8.1,5.6c-4.3,0.4-7.1-0.7-10.7-1c3.3-1.7,7.2-2.6,11.7-4.6c2.5-1.1,10.8-2.3,10.2-6.1
		c-0.9-5.5-10.3,1.4-13.2,2.5c-5,2-9.1,1.7-13.2,3.6c-2,0.6-0.6,2.9-1.5,3.6c-26.1-5.2-66.3-3.4-95.6-1c-5,0.4-10.1-0.3-14.7,0
		c-3.6,0.2-7.1,1.6-9.7-1C155.5,154.3,150.2,125.9,149.4,92.9L149.4,92.9z M178.4,280.6c-9-22.1-20.1-46.7-16.3-81.4
		c23.9-1.1,47.6-2.5,74.2-2.5c8.3,0,17.3-0.9,24.9,0c14.7,1.6,29.3,6.8,43.7,7.1c8.6,34.2,1.5,77.2-13.7,98.1
		c-15.1-4.4-22-17-39.1-19.3c0.8-2.4,4.6-5.1,4.1-9.1c-0.6-5-7.7-6.8-10.7-2c-4.6-1.2-10.1-1.4-14.7-2.6c2.8-8.3,8.7-12.1,9.7-20.3
		c0.5-4.6-2.4-19.4-5.1-22.9c-9.4-12.2-35.3-8.8-53.9-6.6c-5.3,0.6-9.9-0.1-10.2,5.1c-0.4,9.8,15.4,4.2,22.9,3.6
		c14.3-1.2,25.6-0.7,32.5,4.6c0.2,5.9,2.9,9.4,2.5,14.2c-0.9,10.9-17.2,20.5-6.1,31.5c5.7,1.6,11.6,3.3,17.3,3.6
		c1.3,1.5-5.1,4-5.1,7.6c-9.5-22.2-36.4,3.1-49.3,6.6C182.2,291.7,180.5,285.9,178.4,280.6L178.4,280.6z M236.8,296.8
		c-1.2,0.3-2.3,0.7-4.1,0.5c0.1-2.4,2-3.1,2-5.6C235.7,293.2,236.3,294.9,236.8,296.8z M193.6,306c7.5-3.1,16-7.6,25.9-6.6
		c-4,11,17.6,11.4,24.4,7.1c2.9-1.8,2.4-4.6,3.6-6.6c4.1-1.1,9.1,1.4,13.7,3.1c8.3,2.9,16.5,6.1,22.4,11.2
		C259.1,325.7,208.8,325.4,193.6,306L193.6,306z M231.2,414.3c18.9-7.1,30-21.9,43.2-34.6c0.6,2.6-2.1,6.4-2.5,9.7
		c-1.3,0-2.9-0.2-3.6,0.5c-5.7,5-15.3,12.8-22.9,19.8c-2.4,2.3-10.7,9.1-3,9.2c0.2,1.9-3.3,4.5-5.1,6.1
		c-8.7-12.4-15.6-25.4-23.4-40.2c-2.3-4.4-6.5-9.8-6.6-14.2c0-1.7,1.2-3.5,1.5-5.1c2-10.7,1.3-22.5,1.5-36.6
		c15.8,5.2,38.6,4.7,56.9,2c1.1,3.7,1.2,8.3,2.5,11.7c-3.8,4.2-7.5,8.3-11.7,12.2c-3.9,3.6-10.1,6.6-10.7,13.2
		c3.5,2.2,6.7-2.3,9.1-4.6c4.7-4.4,9.8-9,14.2-13.7c0.5,3.8,1.4,7.1,2,10.7c-10.8,12.6-25.7,21-38.1,32c0.3,1.1,1.1,1.6,1.5,2.5
		c15.5-6.7,26.2-18.2,38.1-28.5c1.1,2.2,5.2,4.3,2.5,7.1c-0.3,2.5-1.3-1.7-3.6-0.5c-8.9,9.2-24.6,26.2-36.1,33.6
		C234.2,408.6,227.3,409.7,231.2,414.3L231.2,414.3z M254.1,424.4c1.6-1.1,2.9-2.5,4.1-4.1c-0.5,2.6-2,8.5-4.6,10.7
		C251.9,430.5,257.4,427.1,254.1,424.4L254.1,424.4z M257.7,414.8c1.1-2.3,3.8-2.9,5.1-5.1c1.1,1.8-1.7,4.1-2,6.1
		C259.1,416.1,259.6,414.2,257.7,414.8L257.7,414.8z M250,413.8c-1.9,1.2-3,1.6-0.5-1c5.3-5.5,12.7-8.9,18.3-16.3
		c1.1,1.1-1.1,3.3-1,5.1c-1.2-0.2-2,0.1-2.5,0.5C259.6,405.2,255.4,410.3,250,413.8L250,413.8z M253.1,417.3
		c-2.5,4.1-8.6,9.1-12.7,13.2C242.2,425.8,248.8,421.4,253.1,417.3z M92.9,419.4c3.5,6.6,5,15.4,7.6,22.9c-0.1,2.4-1.1-1-3,0
		c-3.1,1.1-2.9,5.6-5.6,7.1C93.5,440.6,92.8,429.5,92.9,419.4L92.9,419.4z M100.5,444.3c2.3,2.4,1.5,8,3.1,11.2
		c-3.9,4.2-8.3,8-12.7,11.7C90.7,456.1,98.9,453.5,100.5,444.3L100.5,444.3z M90.9,486c-1.6-13.9,7.5-17.2,13.2-23.9
		c6.8,8.6-1.3,11.5-6.6,16.8C94.3,482,93.6,485.6,90.9,486z M95,490.5c3-4.8,7.1-8.5,11.2-12.2c0.7,0.6,1,1.8,1,3.1
		C100.2,479.6,101.6,490.3,95,490.5L95,490.5z M107.2,490.5h-3c-0.2-2.5,2.2-2.5,2.5-4.6C108.8,486,106.3,488.6,107.2,490.5
		L107.2,490.5z M145.3,492.1c-1.5-5.9,1.1-3.5,1.5-4.8c2.5-8.5,3.8-20.9,7.1-29.4c2.1,11.4-3.3,22.4-5.6,34.2
		C147.3,492.1,146.3,492.1,145.3,492.1L145.3,492.1z M189.5,491.6c0-5.9,2.9-9,3.6-14.2C193.5,481.6,192.3,488.8,189.5,491.6z
		 M194.1,476.8c-1.1-4.6,2.7-11.2,3-16.8c0.1-1.9,1.1-6-2-6.6c-3.8,1-3.4,6.2-4.1,9.2c-2.3,10.5-5.1,21.1-7.6,31
		c-10.9,0.7-18.9-1.4-29.5-1c2-12.6,8.6-27.9,4.6-40.2c-4.2,0-3.1,2.9-7.1,1c-6.5,8.6-6.6,23.6-10.7,34.6c-0.7,1.9,2.1,2.9,1,3.6
		c-2.6-0.1-5.7,0.3-7.6-0.5c-0.1-7.6,3.4-15.7,4.1-22.9c0.2-2.3,0.9-6.1-1.5-7.6c-4.8-0.3-3.1,2.8-3.6,5.5
		c-1.2,6.7-3.9,14.3-4.1,20.2h-11.2c0.3-35.4-11.3-61.4-20.8-88.8c16.1-3.4,32.6-5.5,47.3-9.6c2.8-0.8,6.5,10.8,8.1,14.8
		c7.4,17.9,15.7,39.2,28.5,50.1c-0.6,13.8-7.5,24.2-6.1,38.3c0.7,0,1.4,0,1.5,0.6c3.9-0.9,3-5.6,3.6-8.6c1.6-8.9,5.2-19.7,6.6-29.5
		c4.8-0.4,7.2-3.3,11.7-4.1c1.1,4.9,2.5,9.3,2,15.8C196.3,467.2,195.3,472.1,194.1,476.8L194.1,476.8z M204.8,492.1h-4.1
		c1.5-5.9,3.5-14.5-1.5-17.8C206.4,477,205.4,486.2,204.8,492.1z M209.3,494.6c-0.1-1.6,0.9-2.1,0.5-4.1c1.4,1,2.4,2.3,3,4.1H209.3
		L209.3,494.6z M234.8,494.6c-2.9-0.3-7.1,0.7-9.2-0.5c-6.4-6.7-10.1-16-16.8-22.4c2.2-11.1,1.1-27.5-5.1-33.6
		c-8.3-0.5-12.1,3.5-18.3,5.1c-14-14.6-19.7-37.4-29-56.4c-1.3-2.8-3.7-8.1-4.6-10.9c12.5-12.6,28.9-19.4,47.3-31.2h1
		c-1.5,5.9,0.1,9.7-1,13.4c-0.6,2-2.8,4.6-3.1,6.7c-0.9,6.2,5.5,18.1,8.6,24.2c7.6,14.6,15.7,27.2,23.4,41.1
		c4.1,7.5,6.8,14.7,9.7,22.1c1.3,3.4,2.8,5.7,5.6,8.7C239.9,471.5,237.5,483.3,234.8,494.6L234.8,494.6z M247.5,438.7
		c0.4,1-2.3,4.7-0.5,7.1c-1.3-0.7-1.4-2.6-2-4.1C244.8,439.7,247.3,440.4,247.5,438.7L247.5,438.7z M250,489
		c-0.2,2.9-0.2,4.6-4.1,4.6c2.2-16.5,7.6-32.1,13.2-47.8c8.7-24.1,21.9-47.1,28.5-70.7c1.2-4.3,0.4-13.9-2-17.3
		c18.9,8.5,40.6,14.3,59.5,22.9c-6.6,13.4-13.5,26.5-19.3,40.7c-5.7-1.8-12.4,3-18.8,8.2c5-2.9,10.7-4.1,16.2-7.4
		c2.2,0.3-0.5,3.3-0.5,4.6c-6.4-0.3-6.4,5.8-12.2,6.1c-1.2,0.5-1.6,0.3-1.5,0.3h-6.4c-3.7,3-7.3,5.7-10.4,6.5
		c-6,1.7-13.1-0.4-14.8,4.6c-2.5,7.7,5.7,11.7,6.6,18.8C271.6,470.6,258.8,477.8,250,489L250,489z M319.7,440.7
		c-1.2,0-1.5-0.9-3.1-0.5c0.6-2.1,2.9-2.5,4.1-4.1C321.4,436.7,320.1,439.6,319.7,440.7L319.7,440.7z M258.7,492.1h-4.6
		c8.3-11.8,19.7-18,32.5-24.2c0.1,0.9,0.3,1.6,1,1.9C279.3,478.6,266.5,480.3,258.7,492.1L258.7,492.1z M295.8,492.1H281
		c4.1-5.9,10.1-6.2,16.8-7.6C297.1,487,296.3,486.2,295.8,492.1z M376.6,492.6c0.9-4.9,2.3-12.6,4.1-19.8c1-4.1,4.1-9.3,1-12.2
		c-5.8,1.8-5.6,10.1-7.1,16.8c-1.2,5.1-0.7,15.8-8.1,15.3c1-5.8,2-14.3,4.1-21.9c1.1-4.2,4.2-9.2,1-12.2c-4.8,1.7-6.4,10.9-7.6,16.8
		c-1.3,6.5,0.2,15.8-6.6,17.3c1.6-8.7,4.7-20.3,7.1-30.5c0.7-3,2.9-7.4,0-9.6c-6.7,3-5.5,12-7.1,19.1c-1.6,6.9-5,14.7-5.1,20.6h-5.6
		c1.7-11.8,4.9-21.4,7.1-32.3c0.6-2.9,3.1-7.7-1-9.5c-3.9,0.9-3.4,6.3-4.1,9.2c-2.2,10.2-5.9,21.3-6.6,33.1
		c-5.3-0.8-10.9-1.3-17.3-1c0.8-5.5,3.3-11,4.6-17.3c0.9-4.2,3.1-17.5-1-17.8c-4-0.3-2.9,7.7-3,9.4c-1,8.8-4.5,14.4-5.1,26.2h-8.6
		c0.6-5.9,1.8-11.1,3-16.5c1-4.7,4.4-10.7,1-14.9c-5,1.7-5,9.3-6.1,14.4c-1.2,5.6-2.5,11.1-3.6,17h-4.6c0.6-5.9,3-10.5,3.6-16.5
		c-0.4-2.7-3.9-0.7-5.1-1.7c-2.8-8.4-8.3-16.8-10.2-24.5c14.2-1.9,28.1,3.2,38.1,0.5c4.8-23.2,14.7-41.3,23.9-60
		c12.9,2.4,26.2,4.3,35.6,10.2c-2.5,30.9-0.7,68.8,4.6,93.6C386,494.1,381.8,492.9,376.6,492.6L376.6,492.6z M395.9,417.3
		c2.4,2.9,3.7,6.8,5.1,10.7c-2.7,0.2-3.2,2.6-4.6,4.1C395.3,428.2,396.3,422.1,395.9,417.3L395.9,417.3z M404.1,440.2
		c-4.9-0.2-4.1,5.4-7.6,6.6c-0.9-7.7,3.7-9.9,6.1-14.2c2.5,3.5,3,8.8,5.1,12.7c-3.3,3.8-6.9,7.3-9.7,11.7
		C396.8,451,408.7,446.3,404.1,440.2L404.1,440.2z M400.5,481.4c-1.2-0.5-1.4-2-1.5-3.6c0.4,0.5,3.2,1.1,3.6,0
		C403.7,478.8,400.9,480.2,400.5,481.4L400.5,481.4z M403.6,476.3c0.7-6.3,6.5-7.4,8.1-12.7c0.1-1.3-0.8-1.6-1.5-2
		c-6.8,0.8-7.3,7.9-12.2,10.7c-1-11.5,7.2-13.8,10.7-20.8c2.5,3.3,2.7,8.8,4.6,12.7C410.6,468.4,406.9,474.4,403.6,476.3
		L403.6,476.3z M406.1,483.4c1.8-3.9,6.5-9.4,10.2-13.2c0,1.3,0.3,2.4,1,3C411.4,474.5,409.8,480,406.1,483.4L406.1,483.4z
		 M418.3,483.9c0.9-1.8,0-3.8-2-4.1c0-1.7,1.7-1.7,1.5-3.6c1.9,3.4,4.4,8.8,4.1,12.7C420.3,487.9,421.7,484.3,418.3,483.9
		L418.3,483.9z"/>
</g>
</svg>
